<?xml version="1.0" encoding="UTF-8"?><svg id="Layer_2" xmlns="http://www.w3.org/2000/svg" viewBox="0 0 94.23 94.23"><defs><style>.cls-1{fill:none;stroke:#c29850;stroke-miterlimit:10;stroke-width:1.38px;}</style></defs><g id="Layer_1-2"><polygon class="cls-1" points="47.55 47.89 29.89 47.89 17 31.35 34.66 31.35 47.55 47.89"/><polygon class="cls-1" points="65.22 47.89 47.55 47.89 34.66 31.35 52.33 31.35 65.22 47.89"/><polygon class="cls-1" points="82.88 47.89 65.22 47.89 52.33 31.35 69.99 31.35 82.88 47.89"/><polygon class="cls-1" points="52.33 64.48 69.99 64.48 82.88 47.94 65.22 47.94 52.33 64.48"/><polygon class="cls-1" points="34.66 64.48 52.33 64.48 65.22 47.94 47.55 47.94 34.66 64.48"/><polygon class="cls-1" points="17 64.48 34.66 64.48 47.55 47.94 29.89 47.94 17 64.48"/><circle class="cls-1" cx="47.11" cy="47.11" r="46.42"/></g></svg>